G04*
G04 #@! TF.GenerationSoftware,Altium Limited,Altium Designer,22.3.1 (43)*
G04*
G04 Layer_Physical_Order=2*
G04 Layer_Color=16711680*
%FSLAX25Y25*%
%MOIN*%
G70*
G04*
G04 #@! TF.SameCoordinates,05F4E2DF-3ACD-4F1C-B615-966E0BC44E0A*
G04*
G04*
G04 #@! TF.FilePolarity,Positive*
G04*
G01*
G75*
G04:AMPARAMS|DCode=29|XSize=157.48mil|YSize=157.48mil|CornerRadius=39.37mil|HoleSize=0mil|Usage=FLASHONLY|Rotation=0.000|XOffset=0mil|YOffset=0mil|HoleType=Round|Shape=RoundedRectangle|*
%AMROUNDEDRECTD29*
21,1,0.15748,0.07874,0,0,0.0*
21,1,0.07874,0.15748,0,0,0.0*
1,1,0.07874,0.03937,-0.03937*
1,1,0.07874,-0.03937,-0.03937*
1,1,0.07874,-0.03937,0.03937*
1,1,0.07874,0.03937,0.03937*
%
%ADD29ROUNDEDRECTD29*%
%ADD30C,0.02756*%
G36*
X512386Y212614D02*
X324614D01*
X324614Y339386D01*
X512386D01*
X512386Y212614D01*
D02*
G37*
%LPC*%
G36*
X500937Y247512D02*
X493063D01*
X491879Y247356D01*
X490776Y246899D01*
X489828Y246172D01*
X489101Y245224D01*
X488644Y244121D01*
X488488Y242937D01*
Y235063D01*
X488644Y233879D01*
X489101Y232776D01*
X489828Y231828D01*
X490776Y231101D01*
X491879Y230644D01*
X493063Y230488D01*
X500937D01*
X502121Y230644D01*
X503224Y231101D01*
X504172Y231828D01*
X504899Y232776D01*
X505356Y233879D01*
X505512Y235063D01*
Y242937D01*
X505356Y244121D01*
X504899Y245224D01*
X504172Y246172D01*
X503224Y246899D01*
X502121Y247356D01*
X500937Y247512D01*
D02*
G37*
G36*
X354937D02*
X347063D01*
X345879Y247356D01*
X344776Y246899D01*
X343828Y246172D01*
X343101Y245224D01*
X342644Y244121D01*
X342488Y242937D01*
Y235063D01*
X342644Y233879D01*
X343101Y232776D01*
X343828Y231828D01*
X344776Y231101D01*
X345879Y230644D01*
X347063Y230488D01*
X354937D01*
X356121Y230644D01*
X357224Y231101D01*
X358172Y231828D01*
X358899Y232776D01*
X359356Y233879D01*
X359512Y235063D01*
Y242937D01*
X359356Y244121D01*
X358899Y245224D01*
X358172Y246172D01*
X357224Y246899D01*
X356121Y247356D01*
X354937Y247512D01*
D02*
G37*
%LPD*%
D29*
X351000Y239000D02*
D03*
X497000Y320000D02*
D03*
X351000D02*
D03*
X497000Y239000D02*
D03*
D30*
X330709Y224409D02*
D03*
Y248031D02*
D03*
X336614Y259842D02*
D03*
X330709Y271654D02*
D03*
X336614Y283465D02*
D03*
X330709Y295275D02*
D03*
X336614Y307086D02*
D03*
X330709Y318898D02*
D03*
X336614Y330709D02*
D03*
X342520Y224409D02*
D03*
Y271654D02*
D03*
Y295275D02*
D03*
X348425Y307086D02*
D03*
Y330709D02*
D03*
X354331Y224409D02*
D03*
X360236Y283465D02*
D03*
Y307086D02*
D03*
Y330709D02*
D03*
X366142Y224409D02*
D03*
X372047Y236220D02*
D03*
X366142Y248031D02*
D03*
X372047Y283465D02*
D03*
X366142Y295275D02*
D03*
X372047Y307086D02*
D03*
X366142Y318898D02*
D03*
X372047Y330709D02*
D03*
X377953Y224409D02*
D03*
X383858Y283465D02*
D03*
Y330709D02*
D03*
X389764Y224409D02*
D03*
X395669Y236220D02*
D03*
Y283465D02*
D03*
Y330709D02*
D03*
X401575Y224409D02*
D03*
X407480Y236220D02*
D03*
Y283465D02*
D03*
Y330709D02*
D03*
X413386Y224409D02*
D03*
X419291Y236220D02*
D03*
Y259842D02*
D03*
X413386Y271654D02*
D03*
X419291Y307086D02*
D03*
Y330709D02*
D03*
X425197Y224409D02*
D03*
Y271654D02*
D03*
X431102Y330709D02*
D03*
X437008Y224409D02*
D03*
X442913Y236220D02*
D03*
Y259842D02*
D03*
X437008Y271654D02*
D03*
Y295275D02*
D03*
X442913Y307086D02*
D03*
X437008Y318898D02*
D03*
X442913Y330709D02*
D03*
X448819Y224409D02*
D03*
X454724Y236220D02*
D03*
X448819Y248031D02*
D03*
X454724Y259842D02*
D03*
X448819Y271654D02*
D03*
Y295275D02*
D03*
X454724Y307086D02*
D03*
X448819Y318898D02*
D03*
X454724Y330709D02*
D03*
X460630Y224409D02*
D03*
X466535Y307086D02*
D03*
X460630Y318898D02*
D03*
X466535Y330709D02*
D03*
X478346Y307086D02*
D03*
Y330709D02*
D03*
X490157Y283465D02*
D03*
Y307086D02*
D03*
X484252Y318898D02*
D03*
X490157Y330709D02*
D03*
X496063Y271654D02*
D03*
X501968Y283465D02*
D03*
X496063Y295275D02*
D03*
X501968Y307086D02*
D03*
Y330709D02*
D03*
X336614Y236220D02*
D03*
M02*
