G04*
G04 #@! TF.GenerationSoftware,Altium Limited,Altium Designer,22.3.1 (43)*
G04*
G04 Layer_Color=16711935*
%FSLAX25Y25*%
%MOIN*%
G70*
G04*
G04 #@! TF.SameCoordinates,05F4E2DF-3ACD-4F1C-B615-966E0BC44E0A*
G04*
G04*
G04 #@! TF.FilePolarity,Positive*
G04*
G01*
G75*
%ADD31C,0.00394*%
%ADD32R,0.02436X0.11496*%
D31*
X334661Y266598D02*
X338598Y262661D01*
X334661Y266598D02*
Y295339D01*
X367339D01*
Y266598D02*
Y295339D01*
X363402Y262661D02*
X367339Y266598D01*
X338598Y262661D02*
X363402D01*
X426342Y317331D02*
X431658D01*
X426342Y308669D02*
X431658D01*
Y317331D01*
X426342Y308669D02*
Y317331D01*
Y301776D02*
X431658D01*
X426342Y293114D02*
X431658D01*
Y301776D01*
X426342Y293114D02*
Y301776D01*
X451661Y292567D02*
X457567Y286661D01*
X451661Y292567D02*
Y319339D01*
X484339D01*
Y292567D02*
Y319339D01*
X478433Y286661D02*
X484339Y292567D01*
X457567Y286661D02*
X478433D01*
X401055Y236252D02*
Y247748D01*
X382945Y236252D02*
Y247748D01*
Y236252D02*
X401055D01*
X382945Y247748D02*
X401055D01*
X423898Y225803D02*
X474291D01*
X423898Y276197D02*
X474291D01*
Y225803D02*
Y276197D01*
X423898Y225803D02*
Y276197D01*
D32*
X384163Y242000D02*
D03*
M02*
