G04*
G04 #@! TF.GenerationSoftware,Altium Limited,Altium Designer,22.3.1 (43)*
G04*
G04 Layer_Physical_Order=1*
G04 Layer_Color=255*
%FSLAX25Y25*%
%MOIN*%
G70*
G04*
G04 #@! TF.SameCoordinates,05F4E2DF-3ACD-4F1C-B615-966E0BC44E0A*
G04*
G04*
G04 #@! TF.FilePolarity,Positive*
G04*
G01*
G75*
%ADD12R,0.08661X0.16535*%
%ADD13R,0.05315X0.04528*%
%ADD14R,0.41299X0.32992*%
G04:AMPARAMS|DCode=15|XSize=47.24mil|YSize=120.08mil|CornerRadius=11.81mil|HoleSize=0mil|Usage=FLASHONLY|Rotation=0.000|XOffset=0mil|YOffset=0mil|HoleType=Round|Shape=RoundedRectangle|*
%AMROUNDEDRECTD15*
21,1,0.04724,0.09646,0,0,0.0*
21,1,0.02362,0.12008,0,0,0.0*
1,1,0.02362,0.01181,-0.04823*
1,1,0.02362,-0.01181,-0.04823*
1,1,0.02362,-0.01181,0.04823*
1,1,0.02362,0.01181,0.04823*
%
%ADD15ROUNDEDRECTD15*%
%ADD16R,0.09055X0.17913*%
%ADD17R,0.09843X0.06693*%
%ADD18R,0.11417X0.21260*%
%ADD28C,0.03937*%
G04:AMPARAMS|DCode=29|XSize=157.48mil|YSize=157.48mil|CornerRadius=39.37mil|HoleSize=0mil|Usage=FLASHONLY|Rotation=0.000|XOffset=0mil|YOffset=0mil|HoleType=Round|Shape=RoundedRectangle|*
%AMROUNDEDRECTD29*
21,1,0.15748,0.07874,0,0,0.0*
21,1,0.07874,0.15748,0,0,0.0*
1,1,0.07874,0.03937,-0.03937*
1,1,0.07874,-0.03937,-0.03937*
1,1,0.07874,-0.03937,0.03937*
1,1,0.07874,0.03937,0.03937*
%
%ADD29ROUNDEDRECTD29*%
%ADD30C,0.02756*%
G36*
X512386Y212614D02*
X324614D01*
X324614Y339386D01*
X512386D01*
X512386Y212614D01*
D02*
G37*
%LPC*%
G36*
X473315Y327705D02*
X468984D01*
Y318945D01*
X473315D01*
Y327705D01*
D02*
G37*
G36*
X467016D02*
X462685D01*
Y318945D01*
X467016D01*
Y327705D01*
D02*
G37*
G36*
X432445Y319496D02*
X429984D01*
Y317429D01*
X432445D01*
Y319496D01*
D02*
G37*
G36*
X428016D02*
X425555D01*
Y317429D01*
X428016D01*
Y319496D01*
D02*
G37*
G36*
X432445Y315461D02*
X429984D01*
Y313394D01*
X432445D01*
Y315461D01*
D02*
G37*
G36*
X428016D02*
X425555D01*
Y313394D01*
X428016D01*
Y315461D01*
D02*
G37*
G36*
X473315Y316976D02*
X468984D01*
Y308217D01*
X473315D01*
Y316976D01*
D02*
G37*
G36*
X467016D02*
X462685D01*
Y308217D01*
X467016D01*
Y316976D01*
D02*
G37*
G36*
X416437Y320783D02*
X395984D01*
Y304484D01*
X416437D01*
Y320783D01*
D02*
G37*
G36*
X394016D02*
X373563D01*
Y304484D01*
X394016D01*
Y320783D01*
D02*
G37*
G36*
X432256Y312417D02*
X425744D01*
Y306693D01*
X426411D01*
Y303752D01*
X425744D01*
Y303479D01*
X422890D01*
X422890Y303479D01*
X422220Y303391D01*
X421595Y303132D01*
X421059Y302720D01*
X421059Y302720D01*
X418169Y299831D01*
X417758Y299294D01*
X417499Y298670D01*
X417411Y298000D01*
X417411Y298000D01*
Y281072D01*
X415928Y279589D01*
X406000D01*
X405330Y279501D01*
X404705Y279242D01*
X404169Y278831D01*
X399870Y274532D01*
X399459Y273995D01*
X399200Y273371D01*
X399112Y272701D01*
X399112Y272701D01*
Y269832D01*
X398843Y269430D01*
X398705Y268736D01*
Y259090D01*
X398843Y258396D01*
X399237Y257808D01*
X399825Y257414D01*
X400520Y257276D01*
X402882D01*
X403576Y257414D01*
X404165Y257808D01*
X404558Y258396D01*
X404696Y259090D01*
Y268736D01*
X404558Y269430D01*
X404290Y269832D01*
Y271628D01*
X407072Y274411D01*
X417000D01*
X417000Y274411D01*
X417670Y274499D01*
X418294Y274758D01*
X418831Y275169D01*
X421831Y278169D01*
X422242Y278706D01*
X422501Y279330D01*
X422589Y280000D01*
X422589Y280000D01*
Y296928D01*
X423962Y298301D01*
X425334D01*
X425387Y298265D01*
X425589Y297997D01*
X425542Y297458D01*
X425352Y297000D01*
Y281000D01*
X425542Y280542D01*
X426000Y280352D01*
X446732D01*
X456352Y270732D01*
Y239000D01*
X456391Y238907D01*
X456382Y238807D01*
X456482Y238687D01*
X456542Y238542D01*
X456635Y238504D01*
X456699Y238426D01*
X477699Y227426D01*
X477855Y227412D01*
X478000Y227352D01*
X507000D01*
X507458Y227542D01*
X507648Y228000D01*
Y253000D01*
X507458Y253458D01*
X484648Y276268D01*
Y298000D01*
X484458Y298458D01*
X484000Y298648D01*
X459000D01*
X458542Y298458D01*
X458352Y298000D01*
Y284648D01*
X434648Y284648D01*
Y297000D01*
X434458Y297458D01*
X434000Y297648D01*
X432546D01*
X432256Y298028D01*
X432256Y298148D01*
Y303752D01*
X431589D01*
Y306693D01*
X432256D01*
Y312417D01*
D02*
G37*
G36*
X356118Y302425D02*
X351984D01*
Y294354D01*
X356118D01*
Y302425D01*
D02*
G37*
G36*
X350016D02*
X345882D01*
Y294354D01*
X350016D01*
Y302425D01*
D02*
G37*
G36*
X416437Y302516D02*
X395984D01*
Y286216D01*
X416437D01*
Y302516D01*
D02*
G37*
G36*
X394016D02*
X373563D01*
Y286216D01*
X394016D01*
Y302516D01*
D02*
G37*
G36*
X356118Y292386D02*
X351984D01*
Y284315D01*
X356118D01*
Y292386D01*
D02*
G37*
G36*
X350016D02*
X345882D01*
Y284315D01*
X350016D01*
Y292386D01*
D02*
G37*
G36*
X392000Y274648D02*
X386000D01*
X385542Y274458D01*
X385432Y274192D01*
X384890Y274026D01*
X384458Y274458D01*
X384000Y274648D01*
X346000D01*
X345542Y274458D01*
X345352Y274000D01*
Y251268D01*
X339542Y245458D01*
X339352Y245000D01*
Y228000D01*
X339542Y227542D01*
X340000Y227352D01*
X363000D01*
X363458Y227542D01*
X363648Y228000D01*
Y250352D01*
X379000D01*
X379458Y250542D01*
X384890Y255974D01*
X385352Y255783D01*
Y249648D01*
X379000D01*
X378542Y249458D01*
X378352Y249000D01*
Y237000D01*
X378542Y236542D01*
X379000Y236352D01*
X391000D01*
X391458Y236542D01*
X391648Y237000D01*
Y246732D01*
X392268Y247352D01*
X420533D01*
X424385Y235795D01*
X424484Y235681D01*
X424542Y235542D01*
X424641Y235501D01*
X424710Y235421D01*
X424861Y235410D01*
X425000Y235352D01*
X439000D01*
X439458Y235542D01*
X439648Y236000D01*
Y263000D01*
Y264000D01*
X439458Y264458D01*
X439000Y264648D01*
X424000D01*
X423852Y264586D01*
X423693Y264570D01*
X423632Y264495D01*
X423542Y264458D01*
X423481Y264310D01*
X423380Y264186D01*
X420518Y254648D01*
X392648D01*
Y256950D01*
X393148Y257217D01*
X393819Y257084D01*
X394016D01*
Y263913D01*
Y270743D01*
X393819D01*
X393148Y270610D01*
X392648Y270877D01*
Y274000D01*
X392458Y274458D01*
X392000Y274648D01*
D02*
G37*
G36*
X409583Y270743D02*
X409386D01*
Y264898D01*
X411590D01*
Y268736D01*
X411437Y269504D01*
X411002Y270155D01*
X410351Y270590D01*
X409583Y270743D01*
D02*
G37*
G36*
X407417D02*
X407221D01*
X406452Y270590D01*
X405801Y270155D01*
X405366Y269504D01*
X405213Y268736D01*
Y264898D01*
X407417D01*
Y270743D01*
D02*
G37*
G36*
X396181D02*
X395984D01*
Y264898D01*
X398188D01*
Y268736D01*
X398035Y269504D01*
X397600Y270155D01*
X396949Y270590D01*
X396181Y270743D01*
D02*
G37*
G36*
X411590Y262929D02*
X409386D01*
Y257084D01*
X409583D01*
X410351Y257236D01*
X411002Y257671D01*
X411437Y258323D01*
X411590Y259090D01*
Y262929D01*
D02*
G37*
G36*
X407417D02*
X405213D01*
Y259090D01*
X405366Y258323D01*
X405801Y257671D01*
X406452Y257236D01*
X407221Y257084D01*
X407417D01*
Y262929D01*
D02*
G37*
G36*
X398188D02*
X395984D01*
Y257084D01*
X396181D01*
X396949Y257236D01*
X397600Y257671D01*
X398035Y258323D01*
X398188Y259090D01*
Y262929D01*
D02*
G37*
G36*
X405583Y246134D02*
X400858D01*
Y242984D01*
X405583D01*
Y246134D01*
D02*
G37*
G36*
X398890D02*
X394165D01*
Y242984D01*
X398890D01*
Y246134D01*
D02*
G37*
G36*
X405583Y241016D02*
X400858D01*
Y237866D01*
X405583D01*
Y241016D01*
D02*
G37*
G36*
X398890D02*
X394165D01*
Y237866D01*
X398890D01*
Y241016D01*
D02*
G37*
%LPD*%
G36*
X484000Y276000D02*
X507000Y253000D01*
Y228000D01*
X478000D01*
X457000Y239000D01*
Y271000D01*
X447000Y281000D01*
X426000D01*
Y297000D01*
X434000D01*
Y284000D01*
X459000Y284000D01*
Y298000D01*
X484000D01*
Y276000D01*
D02*
G37*
G36*
X392000Y254000D02*
X421000D01*
X424000Y264000D01*
X439000D01*
Y263000D01*
Y236000D01*
X425000D01*
X421000Y248000D01*
X392000D01*
X391000Y247000D01*
Y237000D01*
X379000D01*
Y249000D01*
X386000D01*
Y274000D01*
X392000D01*
Y254000D01*
D02*
G37*
G36*
X385000Y273000D02*
Y257000D01*
X379000Y251000D01*
X363000D01*
Y228000D01*
X340000D01*
Y245000D01*
X346000Y251000D01*
Y274000D01*
X384000D01*
X385000Y273000D01*
D02*
G37*
D12*
X351000Y264630D02*
D03*
Y293370D02*
D03*
D13*
X429000Y316445D02*
D03*
Y309555D02*
D03*
Y300890D02*
D03*
Y294000D02*
D03*
D14*
X395000Y303500D02*
D03*
D15*
X381598Y263913D02*
D03*
X388299D02*
D03*
X401701D02*
D03*
X408402D02*
D03*
X395000D02*
D03*
D16*
X468000Y288039D02*
D03*
Y317961D02*
D03*
D17*
X399874Y242000D02*
D03*
X384126D02*
D03*
D18*
X468189Y251000D02*
D03*
X430000D02*
D03*
D28*
X420000Y280000D02*
Y298000D01*
X417000Y277000D02*
X420000Y280000D01*
Y298000D02*
X422890Y300890D01*
X406000Y277000D02*
X417000D01*
X422890Y300890D02*
X427323D01*
X429000D01*
X401701Y272701D02*
X406000Y277000D01*
X401701Y263913D02*
Y272701D01*
X429000Y300890D02*
Y309555D01*
D29*
X351000Y239000D02*
D03*
X497000Y320000D02*
D03*
X351000D02*
D03*
X497000Y239000D02*
D03*
D30*
X330709Y224409D02*
D03*
Y248031D02*
D03*
X336614Y259842D02*
D03*
X330709Y271654D02*
D03*
X336614Y283465D02*
D03*
X330709Y295275D02*
D03*
X336614Y307086D02*
D03*
X330709Y318898D02*
D03*
X336614Y330709D02*
D03*
X342520Y224409D02*
D03*
Y271654D02*
D03*
Y295275D02*
D03*
X348425Y307086D02*
D03*
Y330709D02*
D03*
X354331Y224409D02*
D03*
X360236Y283465D02*
D03*
Y307086D02*
D03*
Y330709D02*
D03*
X366142Y224409D02*
D03*
X372047Y236220D02*
D03*
X366142Y248031D02*
D03*
X372047Y283465D02*
D03*
X366142Y295275D02*
D03*
X372047Y307086D02*
D03*
X366142Y318898D02*
D03*
X372047Y330709D02*
D03*
X377953Y224409D02*
D03*
X383858Y283465D02*
D03*
Y330709D02*
D03*
X389764Y224409D02*
D03*
X395669Y236220D02*
D03*
Y283465D02*
D03*
Y330709D02*
D03*
X401575Y224409D02*
D03*
X407480Y236220D02*
D03*
Y283465D02*
D03*
Y330709D02*
D03*
X413386Y224409D02*
D03*
X419291Y236220D02*
D03*
Y259842D02*
D03*
X413386Y271654D02*
D03*
X419291Y307086D02*
D03*
Y330709D02*
D03*
X425197Y224409D02*
D03*
Y271654D02*
D03*
X431102Y330709D02*
D03*
X437008Y224409D02*
D03*
X442913Y236220D02*
D03*
Y259842D02*
D03*
X437008Y271654D02*
D03*
Y295275D02*
D03*
X442913Y307086D02*
D03*
X437008Y318898D02*
D03*
X442913Y330709D02*
D03*
X448819Y224409D02*
D03*
X454724Y236220D02*
D03*
X448819Y248031D02*
D03*
X454724Y259842D02*
D03*
X448819Y271654D02*
D03*
Y295275D02*
D03*
X454724Y307086D02*
D03*
X448819Y318898D02*
D03*
X454724Y330709D02*
D03*
X460630Y224409D02*
D03*
X466535Y307086D02*
D03*
X460630Y318898D02*
D03*
X466535Y330709D02*
D03*
X478346Y307086D02*
D03*
Y330709D02*
D03*
X490157Y283465D02*
D03*
Y307086D02*
D03*
X484252Y318898D02*
D03*
X490157Y330709D02*
D03*
X496063Y271654D02*
D03*
X501968Y283465D02*
D03*
X496063Y295275D02*
D03*
X501968Y307086D02*
D03*
Y330709D02*
D03*
X336614Y236220D02*
D03*
M02*
