M48
;Layer_Color=9474304
;FILE_FORMAT=2:5
INCH,TZ
;TYPE=PLATED
T1F00S00C0.01181
T2F00S00C0.06299
T3F00S00C0.07874
%
T01
X496063Y271654
X490157Y283465
X501968
X496063Y295275
X490157Y307086
X478346
X501968
X466535
X454724
X442913
X437008Y295275
X448819
Y271654
X437008
X425197
X413386
X407480Y283465
X395669
X383858
X372047
X360236
X366142Y295275
X360236Y307086
X348425
X336614
X330709Y295275
X342520
X336614Y283465
X330709Y271654
X342520
X336614Y259842
X330709Y248031
X336614Y236220
X330709Y224409
X342520
X354331
X366142
X377953
X389764
X401575
X413386
X425197
X437008
X448819
X460630
X454724Y236220
X442913
X448819Y248031
X442913Y259842
X454724
X419291
Y236220
X407480
X395669
X372047
X366142Y248031
X372047Y307086
X419291
Y330709
X407480
X395669
X383858
X372047
X360236
X348425
X336614
X330709Y318898
X366142
X437008
X448819
X460630
X454724Y330709
X442913
X431102
X466535
X478346
X490157
X501968
X484252Y318898
T02
X506000Y219000
X331000
Y334000
X506000
T03
X497000Y239000
X351000
Y320000
X497000
M30
