G04*
G04 #@! TF.GenerationSoftware,Altium Limited,Altium Designer,22.3.1 (43)*
G04*
G04 Layer_Color=8388736*
%FSLAX25Y25*%
%MOIN*%
G70*
G04*
G04 #@! TF.SameCoordinates,05F4E2DF-3ACD-4F1C-B615-966E0BC44E0A*
G04*
G04*
G04 #@! TF.FilePolarity,Negative*
G04*
G01*
G75*
%ADD19R,0.09461X0.17335*%
%ADD20R,0.06115X0.05328*%
%ADD21R,0.42099X0.33792*%
G04:AMPARAMS|DCode=22|XSize=55.24mil|YSize=128.08mil|CornerRadius=15.81mil|HoleSize=0mil|Usage=FLASHONLY|Rotation=0.000|XOffset=0mil|YOffset=0mil|HoleType=Round|Shape=RoundedRectangle|*
%AMROUNDEDRECTD22*
21,1,0.05524,0.09646,0,0,0.0*
21,1,0.02362,0.12808,0,0,0.0*
1,1,0.03162,0.01181,-0.04823*
1,1,0.03162,-0.01181,-0.04823*
1,1,0.03162,-0.01181,0.04823*
1,1,0.03162,0.01181,0.04823*
%
%ADD22ROUNDEDRECTD22*%
%ADD23R,0.09855X0.18713*%
%ADD24R,0.10642X0.07493*%
%ADD25R,0.12217X0.22060*%
%ADD26C,0.00800*%
G04:AMPARAMS|DCode=27|XSize=165.48mil|YSize=165.48mil|CornerRadius=43.37mil|HoleSize=0mil|Usage=FLASHONLY|Rotation=0.000|XOffset=0mil|YOffset=0mil|HoleType=Round|Shape=RoundedRectangle|*
%AMROUNDEDRECTD27*
21,1,0.16548,0.07874,0,0,0.0*
21,1,0.07874,0.16548,0,0,0.0*
1,1,0.08674,0.03937,-0.03937*
1,1,0.08674,-0.03937,-0.03937*
1,1,0.08674,-0.03937,0.03937*
1,1,0.08674,0.03937,0.03937*
%
%ADD27ROUNDEDRECTD27*%
D19*
X351000Y264630D02*
D03*
Y293370D02*
D03*
D20*
X429000Y316445D02*
D03*
Y309555D02*
D03*
Y300890D02*
D03*
Y294000D02*
D03*
D21*
X395000Y303500D02*
D03*
D22*
X381598Y263913D02*
D03*
X388299D02*
D03*
X401701D02*
D03*
X408402D02*
D03*
X395000D02*
D03*
D23*
X468000Y288039D02*
D03*
Y317961D02*
D03*
D24*
X399874Y242000D02*
D03*
X384126D02*
D03*
D25*
X468189Y251000D02*
D03*
X430000D02*
D03*
D26*
X506000Y219000D02*
D03*
Y334000D02*
D03*
X331000Y219000D02*
D03*
Y334000D02*
D03*
D27*
X351000Y239000D02*
D03*
X497000Y320000D02*
D03*
X351000D02*
D03*
X497000Y239000D02*
D03*
M02*
